<svg xmlns="http://www.w3.org/2000/svg" version="1.1" xmlns:xlink="http://www.w3.org/1999/xlink" xmlns:svgjs="http://svgjs.dev/svgjs" width="1440" height="560" preserveAspectRatio="none" viewBox="0 0 1440 560"><g mask="url(&quot;#SvgjsMask1324&quot;)" fill="none"><rect width="1440" height="560" x="0" y="0" fill="url(&quot;#SvgjsRadialGradient1325&quot;)"></rect><path d="M-1.1670125883295457 182.96782113692495L11.94587378086527 289.7637103983129 118.74176304225325 276.6508240291181 105.62887667305844 169.85493476773013z" fill="rgba(28, 83, 142, 0.4)" class="triangle-float3"></path><path d="M1098.9850139465304 353.2696388238557L1082.636771135343 250.05089601244603 995.7662711351207 369.6178816350431z" fill="rgba(28, 83, 142, 0.4)" class="triangle-float3"></path><path d="M609.3870439992272 394.5222306918831L513.3942291452954 287.91140918142486 406.7834076348371 383.90422403535666 502.77622248876895 490.5150455458149z" fill="rgba(28, 83, 142, 0.4)" class="triangle-float1"></path><path d="M655.504,523.521C698.57,524.276,734.622,494.008,755.674,456.43C776.21,419.775,779.538,375.499,758.952,338.872C737.96,301.522,698.335,279.32,655.504,278.207C610.55,277.038,563.644,293.658,542.301,333.239C521.738,371.373,539.09,415.786,561.241,453.02C582.743,489.162,613.456,522.784,655.504,523.521" fill="rgba(28, 83, 142, 0.4)" class="triangle-float1"></path><path d="M998.1206054813532 153.8268842742866L1149.6148582370745 145.88740691321544 1141.6753808760034-5.606845842505919 990.181128120282 2.3326315185652504z" fill="rgba(28, 83, 142, 0.4)" class="triangle-float3"></path><path d="M68.92448988398048 188.26286190785515L171.78809924202847 277.6808333267153 261.2060706608886 174.81722396866735 158.34246130284066 85.39925254980717z" fill="rgba(28, 83, 142, 0.4)" class="triangle-float1"></path><path d="M-48.97 124.86 a185.92 185.92 0 1 0 371.84 0 a185.92 185.92 0 1 0 -371.84 0z" fill="rgba(28, 83, 142, 0.4)" class="triangle-float1"></path><path d="M1437.5626430765003 487.7082140027634L1357.1215945845915 456.8297885461797 1351.0244806456703 592.9305740123349z" fill="rgba(28, 83, 142, 0.4)" class="triangle-float3"></path><path d="M46.377,526.588C72.523,528.139,97.609,512.192,109.121,488.666C119.57,467.312,109.298,443.558,96.946,423.245C85.231,403.979,68.925,385.622,46.377,385.483C23.647,385.342,5.349,402.524,-5.286,422.613C-15.199,441.339,-14.102,462.94,-4.674,481.915C6.111,503.619,22.184,525.153,46.377,526.588" fill="rgba(28, 83, 142, 0.4)" class="triangle-float3"></path><path d="M608.6323710224473 513.8330958404471L584.3469046351579 453.72445725618365 506.3266799524075 520.2069761292496z" fill="rgba(28, 83, 142, 0.4)" class="triangle-float2"></path><path d="M355.1319374882261 555.8277116784352L316.9859173812433 451.0223827924382 178.8509341057392 560.6440773959108z" fill="rgba(28, 83, 142, 0.4)" class="triangle-float1"></path><path d="M1220.6848089492014 288.97641287871954L1168.491542276094 325.52253164701915 1249.407353765097 385.5393722725307z" fill="rgba(28, 83, 142, 0.4)" class="triangle-float1"></path></g><defs><mask id="SvgjsMask1324"><rect width="1440" height="560" fill="#ffffff"></rect></mask><radialGradient cx="50%" cy="50%" r="772.53" gradientUnits="userSpaceOnUse" id="SvgjsRadialGradient1325"><stop stop-color="#0e2a47" offset="0"></stop><stop stop-color="rgba(11, 192, 202, 1)" offset="1"></stop></radialGradient><style>
                @keyframes float1 {
                    0%{transform: translate(0, 0)}
                    50%{transform: translate(-10px, 0)}
                    100%{transform: translate(0, 0)}
                }

                .triangle-float1 {
                    animation: float1 5s infinite;
                }

                @keyframes float2 {
                    0%{transform: translate(0, 0)}
                    50%{transform: translate(-5px, -5px)}
                    100%{transform: translate(0, 0)}
                }

                .triangle-float2 {
                    animation: float2 4s infinite;
                }

                @keyframes float3 {
                    0%{transform: translate(0, 0)}
                    50%{transform: translate(0, -10px)}
                    100%{transform: translate(0, 0)}
                }

                .triangle-float3 {
                    animation: float3 6s infinite;
                }
            </style></defs></svg>